<svg width="40" height="40" viewBox="0 0 40 40" fill="none" xmlns="http://www.w3.org/2000/svg">
<g clip-path="url(#clip0_2_42)">
<path d="M20 2.22223C16.4839 2.22223 13.0468 3.26488 10.1232 5.21832C7.19967 7.17177 4.92105 9.94828 3.57549 13.1967C2.22993 16.4452 1.87787 20.0197 2.56383 23.4683C3.24979 26.9168 4.94296 30.0845 7.42923 32.5708C9.91549 35.0571 13.0832 36.7502 16.5317 37.4362C19.9803 38.1222 23.5548 37.7701 26.8033 36.4245C30.0517 35.079 32.8283 32.8004 34.7817 29.8768C36.7351 26.9533 37.7778 23.5161 37.7778 20C37.7778 15.285 35.9048 10.7632 32.5708 7.42922C29.2368 4.09524 24.715 2.22223 20 2.22223ZM26.6667 21.6667H13.3333C12.8913 21.6667 12.4674 21.4911 12.1548 21.1785C11.8423 20.866 11.6667 20.442 11.6667 20C11.6667 19.558 11.8423 19.1341 12.1548 18.8215C12.4674 18.5089 12.8913 18.3333 13.3333 18.3333H26.6667C27.1087 18.3333 27.5326 18.5089 27.8452 18.8215C28.1578 19.1341 28.3333 19.558 28.3333 20C28.3333 20.442 28.1578 20.866 27.8452 21.1785C27.5326 21.4911 27.1087 21.6667 26.6667 21.6667Z" fill="#C82323"/>
</g>
<defs>
<clipPath id="clip0_2_42">
<rect width="40" height="40" fill="white"/>
</clipPath>
</defs>
</svg>