<svg width="40" height="40" viewBox="0 0 40 40" fill="none" xmlns="http://www.w3.org/2000/svg">
<path d="M20 3.33331C10.8 3.33331 3.33337 10.8 3.33337 20C3.33337 29.2 10.8 36.6666 20 36.6666C29.2 36.6666 36.6667 29.2 36.6667 20C36.6667 10.8 29.2 3.33331 20 3.33331ZM26.6667 21.6666H21.6667V26.6666C21.6667 27.5833 20.9167 28.3333 20 28.3333C19.0834 28.3333 18.3334 27.5833 18.3334 26.6666V21.6666H13.3334C12.4167 21.6666 11.6667 20.9166 11.6667 20C11.6667 19.0833 12.4167 18.3333 13.3334 18.3333H18.3334V13.3333C18.3334 12.4166 19.0834 11.6666 20 11.6666C20.9167 11.6666 21.6667 12.4166 21.6667 13.3333V18.3333H26.6667C27.5834 18.3333 28.3334 19.0833 28.3334 20C28.3334 20.9166 27.5834 21.6666 26.6667 21.6666Z" fill="#23C847"/>
</svg>
